<svg width="1022" height="164" viewBox="0 0 1022 164" fill="none" xmlns="http://www.w3.org/2000/svg">
<path d="M-1.87781 162V1.91999H46.8422V162H-1.87781ZM71.7909 162V1.91999H149.311L246.271 123.6L245.071 1.91999H291.151V162H212.911L117.391 41.52L118.591 162H71.7909ZM313.21 110.88H360.97C361.45 121.92 362.65 124.56 368.41 126.72C372.01 128.16 385.69 129.12 401.05 129.12C457.45 129.12 464.17 127.44 464.17 114.24C464.17 107.76 461.05 102.96 456.01 101.28C450.73 99.6 450.73 99.6 425.53 99.36H381.37C351.85 99.36 339.61 97.68 329.29 92.4C317.77 86.4 312.49 73.68 312.49 51.84C312.49 23.04 320.65 10.8 343.69 5.27999C356.65 1.91999 375.37 0.719988 410.41 0.719988C466.57 0.719988 479.53 2.16 491.05 9.59999C502.09 17.04 505.69 26.88 505.69 50.88H458.17C458.17 36.96 453.37 35.04 421.93 35.04C406.33 35.04 385.45 35.52 377.77 36C364.81 36.96 360.49 40.32 360.49 49.44C360.49 56.16 363.85 60.48 370.81 62.16C373.69 62.88 374.65 63.12 390.49 63.36H435.85C440.17 63.36 461.77 64.08 469.93 64.56C500.41 66 512.41 79.44 512.41 111.6C512.41 141.12 503.77 154.08 480.25 159.12C468.25 161.76 444.49 163.2 409.69 163.2C354.25 163.2 342.01 162 327.85 154.8C318.01 150 312.97 137.76 312.97 118.8C312.97 117.36 312.97 114.24 313.21 110.88ZM533.191 162V1.91999H581.911V162H533.191ZM606.86 162V1.91999H745.1C778.94 1.91999 794.78 5.75999 805.82 16.8C814.7 25.44 818.3 35.52 819.98 55.92C820.46 63.36 820.94 74.4 820.94 82.08C820.94 96.48 819.98 113.04 818.54 122.16C815.9 141.36 802.46 156.24 784.94 159.6C775.82 161.52 768.62 162 751.58 162H606.86ZM655.58 123.84H737.18C750.38 123.84 751.34 123.84 757.1 121.92C768.86 118.32 771.98 109.92 771.98 82.32C771.98 48.72 766.22 41.76 738.14 41.76H655.58V123.84ZM842.482 1.91999H1019.84V38.16H890.482V65.76H1012.4V97.44H890.482V125.76H1021.52V162H842.482V1.91999Z" fill="#262626"/>
</svg>
