<svg width="1226" height="164" viewBox="0 0 1226 164" fill="none" xmlns="http://www.w3.org/2000/svg">
<path d="M0.317501 162V1.91999H138.318C166.638 1.91999 179.118 4.32 188.238 12C197.598 19.44 201.918 33.12 201.918 54.72C201.918 84.48 194.718 96.24 174.318 100.8C194.238 104.16 200.238 112.56 199.758 136.8V162H150.318V142.08C150.078 124.8 145.278 121.2 123.438 121.68H48.7975V162H0.317501ZM48.7975 82.56H124.878C148.398 82.56 152.958 79.68 152.958 63.84C152.958 53.52 151.998 49.2 148.878 45.84C145.278 42 141.198 41.28 126.558 41.28H48.7975V82.56ZM224.455 1.91999H401.815V38.16H272.455V65.76H394.375V97.44H272.455V125.76H403.495V162H224.455V1.91999ZM575.462 101.76H622.743C622.503 125.04 621.783 132.96 618.423 140.16C612.182 153.84 599.223 160.32 574.263 162C564.422 162.96 545.223 163.2 513.302 163.2C467.222 163.2 452.342 161.04 439.382 152.64C423.542 142.56 418.982 125.76 418.982 78.24C418.982 36 423.782 20.88 440.582 11.28C454.982 2.87999 470.342 0.719988 515.223 0.719988C574.983 0.719988 587.942 1.91999 601.623 8.63999C614.583 15.12 620.583 29.28 620.583 52.8V58.08H574.023C573.063 40.56 569.463 39.12 527.223 39.12C487.382 39.12 480.182 40.08 474.182 45.36C468.422 50.64 467.222 57.12 467.222 83.04C467.222 121.44 470.822 124.32 517.623 124.32C553.863 124.32 559.142 124.08 565.863 121.2C572.823 118.32 575.462 113.28 575.462 101.76ZM644.371 1.91999H821.731V38.16H692.371V65.76H814.291V97.44H692.371V125.76H823.411V162H644.371V1.91999ZM842.727 162V1.91999H920.247L1017.21 123.6L1016.01 1.91999H1062.09V162H983.847L888.327 41.52L889.527 162H842.727ZM1147.42 162V41.52H1076.14V1.91999H1267.42V41.52H1196.14V162H1147.42Z" fill="#262626"/>
</svg>
