<?xml version="1.0" encoding="UTF-8"?>
<svg id="Layer_2" data-name="Layer 2" xmlns="http://www.w3.org/2000/svg" viewBox="0 0 34.47 26.77">
  <defs>
    <style>
      .cls-1 {
        fill: #dcdcdc;
      }
    </style>
  </defs>
  <g id="Layer_1-2" data-name="Layer 1">
    <path class="cls-1" d="M0,0h24.16c3.09,0,4.78.28,6.18.96,2.17,1.12,3.05,2.93,3.05,6.34s-1.2,5.3-3.73,5.78c3.61.68,4.82,2.25,4.82,6.14,0,3.37-.96,5.5-3.09,6.62-1.24.64-3.01.92-6.1.92H0V0h0ZM21.63,10.67c1.56,0,2.13-.08,2.65-.32.64-.36,1.04-1.08,1.04-2.01,0-1.08-.52-1.89-1.41-2.21-.52-.16-.92-.2-2.49-.2H7.95v4.74h13.68ZM22.51,20.83c1.65,0,1.97-.04,2.49-.2.8-.28,1.28-1.08,1.28-2.21s-.48-1.97-1.36-2.29c-.48-.16-.8-.2-2.61-.2H7.94v4.9h14.57Z"/>
  </g>
</svg>