<?xml version="1.0" encoding="UTF-8"?>
<svg id="Layer_2" data-name="Layer 2" xmlns="http://www.w3.org/2000/svg" viewBox="0 0 297.71 26.77">
  <defs>
    <style>
      .cls-1 {
        fill: #dcdcdc;
      }
    </style>
  </defs>
  <g id="Layer_1-2" data-name="Layer 1">
    <path class="cls-1" d="M0,0h12.96l16.21,20.35-.2-20.35h7.7v26.77h-13.08L7.62,6.62l.2,20.15H0V0Z"/>
    <path class="cls-1" d="M68.81,0h-19.97c-4.57,0-8.28,3.71-8.28,8.28v10.2c0,4.57,3.71,8.28,8.28,8.28h19.97c4.57,0,8.28-3.71,8.28-8.28v-10.2c0-4.57-3.71-8.28-8.28-8.28ZM68.92,16.91c0,1.98-1.61,3.59-3.59,3.59h-13.01c-1.98,0-3.59-1.61-3.59-3.59v-7.01c0-1.98,1.61-3.59,3.59-3.59h13.01c1.98,0,3.59,1.61,3.59,3.59v7.01Z"/>
    <path class="cls-1" d="M81.07,0h24.16c3.09,0,4.78.28,6.18.96,2.17,1.12,3.05,2.93,3.05,6.34s-1.2,5.3-3.73,5.78c3.61.68,4.82,2.25,4.82,6.14,0,3.37-.96,5.5-3.09,6.62-1.24.64-3.01.92-6.1.92h-25.28V0h0ZM102.7,10.67c1.56,0,2.13-.08,2.65-.32.64-.36,1.04-1.08,1.04-2.01,0-1.08-.52-1.89-1.41-2.21-.52-.16-.92-.2-2.49-.2h-13.48v4.74h13.68ZM103.58,20.83c1.65,0,1.97-.04,2.49-.2.8-.28,1.28-1.08,1.28-2.21s-.48-1.97-1.36-2.29c-.48-.16-.8-.2-2.61-.2h-14.37v4.9h14.57Z"/>
    <path class="cls-1" d="M119.54,0h8.15v20.15h18.42v6.62h-26.57V0h0Z"/>
    <path class="cls-1" d="M180.04,0v6.06h-21.91v4.62h21.91v5.3h-21.91v4.74h21.91v6.06h-29.94V0h29.94Z"/>
    <path class="cls-1" d="M256.14,0v6.06h-21.91v4.62h21.91v5.3h-21.91v4.74h21.91v6.06h-29.94V0h29.94Z"/>
    <path class="cls-1" d="M186.04,0h8.15v9.99h4.25l11.08-9.99h11.2l-15.37,13.24,16.86,13.52h-11.84l-12.08-10.27h-4.09v10.27h-8.15V0Z"/>
    <path class="cls-1" d="M274.43,17.5l-15.29-17.5h10.39l9.03,11.08,8.95-11.08h10.19l-15.09,17.5v9.27h-8.19v-9.27h0Z"/>
  </g>
</svg>