<?xml version="1.0" encoding="UTF-8"?>
<svg id="Layer_2" data-name="Layer 2" xmlns="http://www.w3.org/2000/svg" viewBox="0 0 36.53 26.77">
  <defs>
    <style>
      .cls-1 {
        fill: #dcdcdc;
      }
    </style>
  </defs>
  <g id="Layer_1-2" data-name="Layer 1">
    <path class="cls-1" d="M28.25,0H8.28C3.71,0,0,3.71,0,8.28v10.2c0,4.57,3.71,8.28,8.28,8.28h19.97c4.57,0,8.28-3.71,8.28-8.28v-10.2c0-4.57-3.71-8.28-8.28-8.28ZM28.36,16.91c0,1.98-1.61,3.59-3.59,3.59h-13.01c-1.98,0-3.59-1.61-3.59-3.59v-7.01c0-1.98,1.61-3.59,3.59-3.59h13.01c1.98,0,3.59,1.61,3.59,3.59v7.01Z"/>
  </g>
</svg>